<?xml version="1.0" encoding="utf-8"?>
<!-- Generator: Adobe Illustrator 23.0.1, SVG Export Plug-In . SVG Version: 6.00 Build 0)  -->
<svg version="1.1" id="图层_1" xmlns="http://www.w3.org/2000/svg" xmlns:xlink="http://www.w3.org/1999/xlink" x="0px" y="0px"
	 viewBox="0 0 52.8 72.88" style="enable-background:new 0 0 52.8 72.88;" xml:space="preserve">
<style type="text/css">
	.st0{fill:#ffffff;opacity: 0.8; box-shadow: 0 2px 4px rgba(0,0,0,0.2)}
</style>
<g>
	<g>
		<g>
			<path class="st0" d="M20,56.17c-0.39,0-0.72,0.25-0.85,0.59l-1.72,4.35l-0.15,0.5l-0.13-0.5l-1.33-4.24
				c0-0.02-0.01-0.04-0.02-0.04v-0.01c-0.13-0.36-0.46-0.61-0.85-0.61H12.8c-0.49,0.03-0.87,0.42-0.87,0.91
				c0,0.13,0.06,0.3,0.1,0.47l0.28,0.89l-1.05,2.65l-0.17,0.49l-0.13-0.5l-1.32-4.24c-0.02-0.02-0.02-0.04-0.02-0.04v-0.01
				c-0.13-0.36-0.47-0.61-0.85-0.61H6.61c-0.48,0.03-0.87,0.42-0.87,0.91c0,0.13,0.05,0.3,0.11,0.47l3.21,9.59
				c0.1,0.39,0.46,0.68,0.88,0.68c0.41,0,0.75-0.26,0.86-0.63l2.25-5.69l0.17-0.5l0.14,0.5l1.9,5.65c0.1,0.39,0.45,0.68,0.88,0.68
				c0.42,0,0.76-0.27,0.88-0.66l3.81-9.72c0.05-0.12,0.09-0.26,0.09-0.39C20.91,56.58,20.5,56.17,20,56.17"/>
			<path class="st0" d="M36.03,56.17c-0.39,0-0.72,0.25-0.85,0.59l-1.71,4.35l-0.16,0.5l-0.13-0.5l-1.34-4.24
				c0-0.02,0-0.04-0.01-0.04v-0.01c-0.13-0.36-0.47-0.61-0.86-0.61h-2.15c-0.48,0.03-0.86,0.42-0.86,0.91c0,0.13,0.05,0.3,0.1,0.47
				l0.28,0.89l-1.06,2.65l-0.17,0.49l-0.13-0.5l-1.33-4.24c-0.02-0.02-0.02-0.04-0.02-0.04v-0.01c-0.12-0.36-0.46-0.61-0.84-0.61
				h-2.15c-0.49,0.03-0.87,0.42-0.87,0.91c0,0.13,0.06,0.3,0.11,0.47l3.22,9.59c0.1,0.39,0.45,0.68,0.88,0.68
				c0.4,0,0.74-0.26,0.86-0.63l2.25-5.69l0.16-0.5l0.14,0.5l1.89,5.65c0.11,0.39,0.46,0.68,0.88,0.68c0.41,0,0.76-0.27,0.88-0.66
				l3.81-9.72c0.06-0.12,0.09-0.26,0.09-0.39C36.94,56.58,36.53,56.17,36.03,56.17"/>
			<path class="st0" d="M46.44,56.19h-7.52c-0.43,0-0.78,0.35-0.78,0.79v0.01v1.9v8.08c0,0.01,0-0.01,0,0h0
				c0.02,0.45,0.39,0.81,0.84,0.81h2.13c0.46-0.01,0.82-0.38,0.83-0.84v-4.66c0,0,3.05-0.01,3.06-0.01c0.45,0,0.81-0.37,0.81-0.83
				c0-0.45-0.37-0.82-0.83-0.82h-3.04l-0.01-2.67h4.54c0.46-0.02,0.84-0.4,0.84-0.88C47.33,56.58,46.93,56.19,46.44,56.19"/>
			<path class="st0" d="M34.79,24.38c1.37,1.53,1.51,6.09,4.95,4.28c2.07-1.09,2.04-5.69-0.72-7.35c-2.23-1.32-3.45,0.46-4.26,2.64
				C34.7,24.11,34.69,24.29,34.79,24.38"/>
			<path class="st0" d="M29.45,23.65c-1.44,1.19-2.42,4.46-5.07,3.35c-2.13-1.09-2.34-5.32,1.34-7.27c2.57-1.18,3.87,1.16,3.89,3.63
				C29.61,23.44,29.52,23.57,29.45,23.65"/>
			<path class="st0" d="M32.99,31.98c1.42-0.15,1.1-1.46,0.02-1.79c-0.96-0.29-2.42-0.47-3.45-0.46c-1.82,0.04-1.78,1.44-0.83,1.67
				c0.72,0.24,1.18,0.33,1.8,1.13C31.11,33.63,30.85,32.21,32.99,31.98"/>
			<path class="st0" d="M39.69,8.42c1.78-2.97,4.88-2.39,6.44-0.91c1.71,1.61,1.98,3.46,1.33,4.77c-0.89,1.75-3.17,3.88-4.66,1.82
				c-0.66-0.91-2.05-2-2.81-2.31C38.82,11.3,38.6,10.24,39.69,8.42"/>
			<path class="st0" d="M46.79,21.51c-0.16-0.53-0.42-0.5-0.41-0.06c0.14,5.41-3.09,11.2-10,11.24c-1.77,0-1.24,2.83-4.46,1.41
				c-2.33-1.57-3.66,1.52-5.31-1.8c-0.36-0.96-0.91-1.34-1.61-1.51c-6.82-1.69-9-11.09-2.99-18.67c1.19,0.71,1.63,0.82,2.89-0.34
				c0.66-0.61,1.78-1.29,2.38-1.51c1.44-0.55,2.23-1.17,0.98-3.93C26.65,2.75,23.37,3.76,21.86,5c-1.7,1.4-2.89,3.65-0.7,6.31
				c-6.11,4.13-7.16,9.2-7.02,13.6c0.14,4.69-1.05,4.29,0.44,9.05c0.13,0.42-0.16,0.41-0.38,0.27c-6.37-4.08-9.82-16.53,0.12-23.39
				c0.22-0.2,0.13-0.46-0.69,0.02c-8.6,4.55-9.39,13.36-7.96,19.29c0.7,2.88-0.36,3.4,0.75,7.18c2.56,7.87,4.74,8.49,7.82,8.72
				c5.61,0,1.81-3.1,2.01-6.98c0-0.23,0.28-0.34,0.44,0.13c3.09,6.93,5.27,13.23,13.38,12.63c4.7-0.61,2.09-2.94,1.81-4.26
				c-3.46-11.46,4.93-14.17,2.56-2.99c-1.57,6.4,3.38,5.76,6.88,3.46C44.89,45.68,49.39,30.09,46.79,21.51 M33.12,35.07
				c-0.78,2.06-4.81,1.35-4.94-0.64c0-0.08,0.11-0.06,0.15-0.05c1.8,0.42,3.5,0.62,4.66,0.61C33.04,34.99,33.13,34.97,33.12,35.07"
				/>
			<path class="st0" d="M15.11,48.96c0,0.83-0.68,1.5-1.5,1.5c-0.83,0-1.5-0.67-1.5-1.5c0-0.82,0.67-1.5,1.5-1.5
				C14.43,47.47,15.11,48.14,15.11,48.96 M13.61,47.17c-0.99,0-1.8,0.81-1.8,1.8c0,1,0.81,1.8,1.8,1.8c1,0,1.79-0.81,1.79-1.8
				C15.4,47.98,14.6,47.17,13.61,47.17"/>
			<path class="st0" d="M14.12,49.25c-0.03,0.21-0.22,0.37-0.47,0.37c-0.35,0-0.56-0.31-0.56-0.66c0-0.36,0.2-0.64,0.56-0.64
				c0.24,0,0.42,0.14,0.47,0.36h0.25c-0.04-0.4-0.36-0.62-0.73-0.62c-0.54,0-0.84,0.39-0.84,0.9c0,0.52,0.33,0.91,0.85,0.91
				c0.37,0,0.66-0.24,0.73-0.62H14.12z"/>
			<path class="st0" d="M46.74,53.26c0,0.83-0.68,1.5-1.5,1.5c-0.84,0-1.51-0.67-1.51-1.5c0-0.83,0.67-1.49,1.51-1.49
				C46.07,51.76,46.74,52.43,46.74,53.26 M45.24,51.46c-1,0-1.8,0.8-1.8,1.8c0,1,0.8,1.8,1.8,1.8c0.99,0,1.8-0.8,1.8-1.8
				C47.04,52.26,46.23,51.46,45.24,51.46"/>
			<path class="st0" d="M44.93,53.38h0.29l0.45,0.73h0.28l-0.48-0.75c0.25-0.03,0.45-0.16,0.45-0.46c0-0.34-0.2-0.48-0.6-0.48h-0.65
				v1.69h0.27V53.38 M44.93,53.16v-0.53h0.35c0.18,0,0.37,0.05,0.37,0.25c0,0.26-0.19,0.27-0.42,0.27H44.93z"/>
		</g>
	</g>
</g>
</svg>
