<svg
  xmlns="http://www.w3.org/2000/svg"
  xmlns:xlink="http://www.w3.org/1999/xlink"
  viewBox="0 0 32 40"
  version="1.1"
  x="0px"
  y="0px"
>
  <g stroke="none" stroke-width="1" fill="none" fill-rule="evenodd">
    <path
      d="M27,17.0000589 L9,17.0000589 C8.44771525,17.0000589 8,16.5523436 8,16.0000589 C8,15.4477741 8.44771525,15.0000589 9,15.0000589 L27,15.0000589 C27.5522847,15.0000589 28,15.4477741 28,16.0000589 C28,16.5523436 27.5522847,17.0000589 27,17.0000589 Z M22,25.0000589 L4,25.0000589 C3.44771525,25.0000589 3,24.5523436 3,24.0000589 C3,23.4477741 3.44771525,23.0000589 4,23.0000589 L22,23.0000589 C22.5522847,23.0000589 23,23.4477741 23,24.0000589 C23,24.5523436 22.5522847,25.0000589 22,25.0000589 Z M22,9.00005885 L4,9.00005885 C3.44771525,9.00005885 3,8.5523436 3,8.00005885 C3,7.4477741 3.44771525,7.00005885 4,7.00005885 L22,7.00005885 C22.5522847,7.00005885 23,7.4477741 23,8.00005885 C23,8.5523436 22.5522847,9.00005885 22,9.00005885 Z"
      fill="#000000"
      fill-rule="nonzero"
    />
  </g>
 
</svg>
